<svg xmlns="http://www.w3.org/2000/svg" width="200" height="200" viewBox="0 0 200 200">
  <rect width="200" height="200" fill="#f6f8fa" />
  <g transform="translate(20 20) scale(0.625)" fill="#57606a">
    <path
      d="M80,96a8,8,0,0,1-8,8H24a8,8,0,0,1,0-16H72A8,8,0,0,1,80,96Zm-8,24H24a8,8,0,0,0,0,16H72a8,8,0,0,0,0-16Zm0,32H24a8,8,0,0,0,0,16H72a8,8,0,0,0,0-16Zm0,32H24a8,8,0,0,0,0,16H72a8,8,0,0,0,0-16Zm80-64H104a8,8,0,0,0,0,16h48a8,8,0,0,0,0-16Zm0,32H104a8,8,0,0,0,0,16h48a8,8,0,0,0,0-16Zm0,32H104a8,8,0,0,0,0,16h48a8,8,0,0,0,0-16Zm80-96H184a8,8,0,0,0,0,16h48a8,8,0,0,0,0-16ZM184,72h48a8,8,0,0,0,0-16H184a8,8,0,0,0,0,16Zm48,48H184a8,8,0,0,0,0,16h48a8,8,0,0,0,0-16Zm0,32H184a8,8,0,0,0,0,16h48a8,8,0,0,0,0-16Zm0,32H184a8,8,0,0,0,0,16h48a8,8,0,0,0,0-16Z"
    />
  </g>
</svg>
