<svg xmlns="http://www.w3.org/2000/svg" width="200" height="200" viewBox="0 0 200 200">
  <rect width="200" height="200" fill="#f6f8fa" />
  <g transform="translate(44 44) scale(4.6667)" fill="#57606a">
    <path
      d="M3.38 8A9.502 9.502 0 0 1 12 2.5a9.502 9.502 0 0 1 9.215 7.182.75.75 0 1 0 1.456-.364C21.473 4.539 17.15 1 12 1a10.995 10.995 0 0 0-9.5 5.452V4.75a.75.75 0 0 0-1.5 0V8.5a1 1 0 0 0 1 1h3.75a.75.75 0 0 0 0-1.5H3.38Zm-.595 6.318a.75.75 0 0 0-1.455.364C2.527 19.461 6.85 23 12 23c4.052 0 7.592-2.191 9.5-5.451v1.701a.75.75 0 0 0 1.5 0V15.5a1 1 0 0 0-1-1h-3.75a.75.75 0 0 0 0 1.5h2.37A9.502 9.502 0 0 1 12 21.5c-4.446 0-8.181-3.055-9.215-7.182Z"
    />
  </g>
</svg>
