<svg xmlns="http://www.w3.org/2000/svg" width="200" height="200" viewBox="0 0 200 200">
  <rect width="200" height="200" fill="#f6f8fa" />
  <g transform="translate(20 20) scale(0.625)" fill="#57606a">
    <path
      d="M223.68,66.15,135.68,18h0a15.88,15.88,0,0,0-15.36,0l-88,48.17a16,16,0,0,0-8.32,14v95.64a16,16,0,0,0,8.32,14l88,48.17a15.88,15.88,0,0,0,15.36,0l88-48.17a16,16,0,0,0,8.32-14V80.18A16,16,0,0,0,223.68,66.15ZM128,32h0l80.34,44L128,120,47.66,76ZM40,90l80,43.78v85.79L40,175.82Zm96,129.57V133.82L216,90v85.78Z"
    />
  </g>
</svg>
